<svg width="22" height="22" viewBox="0 0 24 24" fill="white" stroke='inherit' xmlns="http://www.w3.org/2000/svg">
<path fill-rule="evenodd" clip-rule="evenodd" d="M13 3.25C13.4142 3.25 13.75 3.58579 13.75 4C13.75 5.12717 14.1978 6.20817 14.9948 7.0052C15.7918 7.80223 16.8728 8.25 18 8.25C18.4142 8.25 18.75 8.58579 18.75 9C18.75 9.41421 18.4142 9.75 18 9.75C16.475 9.75 15.0125 9.1442 13.9341 8.06586C13.8711 8.00286 13.8097 7.93855 13.75 7.87299V16C13.75 16.9395 13.4714 17.8578 12.9495 18.639C12.4275 19.4201 11.6857 20.0289 10.8177 20.3884C9.9498 20.7479 8.99473 20.842 8.07332 20.6587C7.15191 20.4755 6.30554 20.0231 5.64124 19.3588C4.97695 18.6945 4.52455 17.8481 4.34127 16.9267C4.15799 16.0053 4.25206 15.0502 4.61157 14.1823C4.97109 13.3143 5.57991 12.5725 6.36104 12.0505C7.14218 11.5286 8.06054 11.25 9 11.25C9.41422 11.25 9.75 11.5858 9.75 12C9.75 12.4142 9.41422 12.75 9 12.75C8.35721 12.75 7.72886 12.9406 7.1944 13.2977C6.65994 13.6548 6.24338 14.1624 5.99739 14.7563C5.75141 15.3501 5.68705 16.0036 5.81245 16.634C5.93785 17.2645 6.24738 17.8436 6.7019 18.2981C7.15643 18.7526 7.73552 19.0622 8.36596 19.1876C8.9964 19.313 9.64986 19.2486 10.2437 19.0026C10.8376 18.7566 11.3452 18.3401 11.7023 17.8056C12.0594 17.2711 12.25 16.6428 12.25 16V4C12.25 3.58579 12.5858 3.25 13 3.25Z" fill="white"/>
</svg>
